HIERARCHY
ROOT Hips
{
  OFFSET 5.84602e-005 68.8428 3.50346
  CHANNELS 6 Xposition Yposition Zposition Zrotation Xrotation Yrotation
  JOINT Spine
  {
    OFFSET 0 8.597 -4.6522
    CHANNELS 3 Zrotation Xrotation Yrotation
    JOINT Spine1
    {
      OFFSET 0 7.8454 0.4098
      CHANNELS 3 Zrotation Xrotation Yrotation
      JOINT Spine2
      {
        OFFSET 0 9.7078 -2.1609
        CHANNELS 3 Zrotation Xrotation Yrotation
        JOINT Neck
        {
          OFFSET 0 21.8761 -0.4549
          CHANNELS 3 Zrotation Xrotation Yrotation
          JOINT Head
          {
            OFFSET 0 12.3537 3.3602
            CHANNELS 3 Zrotation Xrotation Yrotation
            End Site
            {
              OFFSET 0.0001 18.9506 0.5657
            }
          }
        }
        JOINT LeftShoulder
        {
          OFFSET 2.2086 21.1115 7.2329
          CHANNELS 3 Zrotation Xrotation Yrotation
          JOINT LeftArm
          {
            OFFSET 13.1193 3.0282 -4.8998
            CHANNELS 3 Zrotation Xrotation Yrotation
            JOINT LeftForeArm
            {
              OFFSET 27.4081 -0.0973053 -0.2375
              CHANNELS 3 Zrotation Xrotation Yrotation
              JOINT LeftHand
              {
                OFFSET 22.8641 0.0662994 -0.1369
                CHANNELS 3 Zrotation Xrotation Yrotation
                JOINT LeftHandIndex1
                {
                  OFFSET 8.8614 0.775009 2.4612
                  CHANNELS 3 Zrotation Xrotation Yrotation
                  JOINT LeftHandIndex2
                  {
                    OFFSET 3.3146 -0.808304 0.5841
                    CHANNELS 3 Zrotation Xrotation Yrotation
                    JOINT LeftHandIndex3
                    {
                      OFFSET 2.2628 -0.552002 0.3989
                      CHANNELS 3 Zrotation Xrotation Yrotation
                      End Site
                      {
                        OFFSET 1.6102 -0.4807 0.2612
                      }
                    }
                  }
                }
                JOINT LeftHandMiddle1
                {
                  OFFSET 8.9937 0.895004 0.2143
                  CHANNELS 3 Zrotation Xrotation Yrotation
                  JOINT LeftHandMiddle2
                  {
                    OFFSET 4.0984 0.0113983 -0.0242
                    CHANNELS 3 Zrotation Xrotation Yrotation
                    JOINT LeftHandMiddle3
                    {
                      OFFSET 2.2716 0.00689697 -0.0138001
                      CHANNELS 3 Zrotation Xrotation Yrotation
                      End Site
                      {
                        OFFSET 2.0404 -0.1441 0.0027
                      }
                    }
                  }
                }
                JOINT LeftHandRing1
                {
                  OFFSET 8.5234 0.597198 -2.0164
                  CHANNELS 3 Zrotation Xrotation Yrotation
                  JOINT LeftHandRing2
                  {
                    OFFSET 3.7188 -0.188293 -0.2328
                    CHANNELS 3 Zrotation Xrotation Yrotation
                    JOINT LeftHandRing3
                    {
                      OFFSET 2.1191 -0.106598 -0.1332
                      CHANNELS 3 Zrotation Xrotation Yrotation
                      End Site
                      {
                        OFFSET 1.8737 -0.2304 -0.0886
                      }
                    }
                  }
                }
                JOINT LeftHandPinky1
                {
                  OFFSET 7.9094 -0.601089 -3.4825
                  CHANNELS 3 Zrotation Xrotation Yrotation
                  JOINT LeftHandPinky2
                  {
                    OFFSET 2.2874 -0.477005 -0.6314
                    CHANNELS 3 Zrotation Xrotation Yrotation
                    JOINT LeftHandPinky3
                    {
                      OFFSET 1.6774 -0.349396 -0.4633
                      CHANNELS 3 Zrotation Xrotation Yrotation
                      End Site
                      {
                        OFFSET 1.4888 -0.4091 -0.3416
                      }
                    }
                  }
                }
                JOINT LeftHandThumb1
                {
                  OFFSET 1.833 -1.3875 1.3896
                  CHANNELS 3 Zrotation Xrotation Yrotation
                  JOINT LeftHandThumb2
                  {
                    OFFSET 3.4129 -1.121 2.5732
                    CHANNELS 3 Zrotation Xrotation Yrotation
                    JOINT LeftHandThumb3
                    {
                      OFFSET 2.2474 -0.804199 1.6192
                      CHANNELS 3 Zrotation Xrotation Yrotation
                      End Site
                      {
                        OFFSET 1.6527 -0.5689 1.1317
                      }
                    }
                  }
                }
              }
            }
          }
        }
        JOINT RightShoulder
        {
          OFFSET -2.2086 21.1115 7.2329
          CHANNELS 3 Zrotation Xrotation Yrotation
          JOINT RightArm
          {
            OFFSET -13.1216 3.0287 -4.9007
            CHANNELS 3 Zrotation Xrotation Yrotation
            JOINT RightForeArm
            {
              OFFSET -27.4081 -0.0973053 -0.2375
              CHANNELS 3 Zrotation Xrotation Yrotation
              JOINT RightHand
              {
                OFFSET -22.8641 0.0664063 -0.1369
                CHANNELS 3 Zrotation Xrotation Yrotation
                JOINT RightHandIndex1
                {
                  OFFSET -8.8614 0.774994 2.4612
                  CHANNELS 3 Zrotation Xrotation Yrotation
                  JOINT RightHandIndex2
                  {
                    OFFSET -3.3146 -0.808304 0.5841
                    CHANNELS 3 Zrotation Xrotation Yrotation
                    JOINT RightHandIndex3
                    {
                      OFFSET -2.2628 -0.552002 0.3989
                      CHANNELS 3 Zrotation Xrotation Yrotation
                      End Site
                      {
                        OFFSET -1.6102 -0.4807 0.2612
                      }
                    }
                  }
                }
                JOINT RightHandMiddle1
                {
                  OFFSET -8.9937 0.894989 0.2143
                  CHANNELS 3 Zrotation Xrotation Yrotation
                  JOINT RightHandMiddle2
                  {
                    OFFSET -4.0984 0.0113983 -0.0242
                    CHANNELS 3 Zrotation Xrotation Yrotation
                    JOINT RightHandMiddle3
                    {
                      OFFSET -2.2716 0.00691223 -0.0138001
                      CHANNELS 3 Zrotation Xrotation Yrotation
                      End Site
                      {
                        OFFSET -2.0404 -0.1441 0.0027
                      }
                    }
                  }
                }
                JOINT RightHandRing1
                {
                  OFFSET -8.5234 0.597198 -2.0164
                  CHANNELS 3 Zrotation Xrotation Yrotation
                  JOINT RightHandRing2
                  {
                    OFFSET -3.7188 -0.188309 -0.2328
                    CHANNELS 3 Zrotation Xrotation Yrotation
                    JOINT RightHandRing3
                    {
                      OFFSET -2.1191 -0.106598 -0.1332
                      CHANNELS 3 Zrotation Xrotation Yrotation
                      End Site
                      {
                        OFFSET -1.8737 -0.2304 -0.0886
                      }
                    }
                  }
                }
                JOINT RightHandPinky1
                {
                  OFFSET -7.9094 -0.601105 -3.4825
                  CHANNELS 3 Zrotation Xrotation Yrotation
                  JOINT RightHandPinky2
                  {
                    OFFSET -2.2874 -0.477005 -0.6314
                    CHANNELS 3 Zrotation Xrotation Yrotation
                    JOINT RightHandPinky3
                    {
                      OFFSET -1.6774 -0.349396 -0.4633
                      CHANNELS 3 Zrotation Xrotation Yrotation
                      End Site
                      {
                        OFFSET -1.4888 -0.4091 -0.3416
                      }
                    }
                  }
                }
                JOINT RightHandThumb1
                {
                  OFFSET -1.833 -1.38751 1.3896
                  CHANNELS 3 Zrotation Xrotation Yrotation
                  JOINT RightHandThumb2
                  {
                    OFFSET -3.41299 -1.12099 2.5732
                    CHANNELS 3 Zrotation Xrotation Yrotation
                    JOINT RightHandThumb3
                    {
                      OFFSET -2.24741 -0.804108 1.6192
                      CHANNELS 3 Zrotation Xrotation Yrotation
                      End Site
                      {
                        OFFSET -1.6527 -0.5689 1.1317
                      }
                    }
                  }
                }
              }
            }
          }
        }
      }
    }
  }
  JOINT RightUpLeg
  {
    OFFSET -9.1966 3.8861 -0.7581
    CHANNELS 3 Zrotation Xrotation Yrotation
    JOINT RightLeg
    {
      OFFSET -0.7359 -41.0265 0
      CHANNELS 3 Zrotation Xrotation Yrotation
      JOINT RightFoot
      {
        OFFSET 0 -40.2855 0
        CHANNELS 3 Zrotation Xrotation Yrotation
        JOINT RightToeBase
        {
          OFFSET 0 -5.6122 11.7359
          CHANNELS 3 Zrotation Xrotation Yrotation
          End Site
          {
            OFFSET 0 0 7.8731
          }
        }
      }
    }
  }
  JOINT LeftUpLeg
  {
    OFFSET 9.1965 3.8864 -0.7581
    CHANNELS 3 Zrotation Xrotation Yrotation
    JOINT LeftLeg
    {
      OFFSET 0.7359 -41.0268 0
      CHANNELS 3 Zrotation Xrotation Yrotation
      JOINT LeftFoot
      {
        OFFSET 0 -40.2855 0
        CHANNELS 3 Zrotation Xrotation Yrotation
        JOINT LeftToeBase
        {
          OFFSET 0 -5.6122 11.7359
          CHANNELS 3 Zrotation Xrotation Yrotation
          End Site
          {
            OFFSET 0 0 7.8731
          }
        }
      }
    }
  }
}
MOTION
Frames:	4
Frame Time:	0.0333333
0.494995 1.01961 64.0368 -99.585 -89.9887 -99.5739 0.294646 1.76016 -0.152355 0.594397 3.51951 -0.313991 0.594396 3.51952 -0.313991 4.32567e-006 -1.69516 -2.94474e-006 8.26753e-008 -4.68625 -8.41365e-008 11.8665 -23.957 -9.53169 -93.7101 -39.9864 -61.0691 -5.70613 7.25597 -129.082 -11.3003 -8.09524 18.6669 1.96925e-007 -1.08052e-006 3.43627e-006 -1.05232e-006 -5.76383e-006 -1.50257e-006 -1.50711e-006 -2.2584e-006 1.17788e-006 1.96925e-007 -1.08052e-006 3.43627e-006 -0.014593 -9.26519e-005 6.14741e-008 -1.50689e-006 -2.25854e-006 1.17759e-006 1.96925e-007 -1.08052e-006 3.43627e-006 -0.0187433 -0.0011836 6.68445e-005 -1.50682e-006 -2.25857e-006 1.17752e-006 1.96925e-007 -1.08052e-006 3.43627e-006 -0.0122721 -0.00325626 0.000681161 -1.50691e-006 -2.25846e-006 1.17767e-006 1.96925e-007 -1.08052e-006 3.43627e-006 -1.05232e-006 -5.76383e-006 -1.50257e-006 -1.50711e-006 -2.2584e-006 1.17788e-006 -11.8904 -23.9486 9.3559 94.6175 -37.9196 63.2754 7.55992 5.28574 112.188 20.7151 -10.3062 -11.2176 -3.88311e-006 2.12337e-006 -4.17314e-006 -6.36111e-015 2.18663e-015 -1.19271e-015 1.45015e-007 2.61483e-006 -4.02813e-006 -3.88311e-006 2.12337e-006 -4.17314e-006 0.0149778 -8.69957e-005 5.24474e-006 1.44948e-007 2.61431e-006 -4.02847e-006 -3.88311e-006 2.12337e-006 -4.17314e-006 0.018985 -0.0011872 -6.26153e-005 8.86946e-007 2.33406e-006 -2.77987e-006 -3.88311e-006 2.12337e-006 -4.17314e-006 0.0122567 -0.00324131 -0.000677903 1.44833e-007 2.61442e-006 -4.02841e-006 -3.88311e-006 2.12337e-006 -4.17314e-006 -6.36111e-015 2.18663e-015 -1.19271e-015 1.45015e-007 2.61483e-006 -4.02813e-006 -13.3159 -33.7014 -11.5384 -71.437 85.8881 69.0762 0.49806 32.3836 -5.5394 -8.82781e-032 1.59028e-015 3.18055e-015 13.3107 -33.7018 11.533 71.4415 85.8885 -69.0856 -0.500359 32.3831 5.53628 1.71571e-006 -3.30918e-008 -3.00662e-008 
0.494995 1.01961 64.165 -99.585 -89.9887 -99.5739 0.29488 1.89014 -0.151923 0.595262 3.77949 -0.313841 0.595262 3.77946 -0.31384 -1.14829e-005 -2.37795 3.57601e-006 -1.31377e-007 -5.36969 2.49239e-007 12.1153 -24.7252 -9.26735 -94.1914 -39.9105 -61.1637 -5.75663 7.21608 -128.682 -11.8275 -8.8335 17.0386 3.51193e-007 -1.84977e-007 2.28407e-006 3.18055e-015 -3.97569e-015 7.95139e-016 3.18055e-015 -4.77083e-015 -0 3.51193e-007 -1.84977e-007 2.28407e-006 -0.0146015 -8.33825e-005 3.08817e-006 3.52735e-007 -1.85259e-007 2.28405e-006 3.51193e-007 -1.84977e-007 2.28407e-006 -0.0187587 -0.00118683 6.35468e-005 3.18055e-015 -3.97569e-015 -0 3.51193e-007 -1.84977e-007 2.28407e-006 -0.0122482 -0.00324043 0.000669355 -3.52549e-007 1.84881e-007 -2.28397e-006 3.51193e-007 -1.84977e-007 2.28407e-006 3.18055e-015 -3.97569e-015 7.95139e-016 3.18055e-015 -4.77083e-015 -0 -12.1407 -24.7171 9.09988 94.4696 -38.0751 63.1161 7.58741 5.2461 111.89 21.4353 -10.7132 -9.51045 6.36111e-015 -1.98785e-016 -7.95139e-016 9.54166e-015 1.78906e-015 -2.78299e-015 6.36111e-015 -1.98785e-016 -7.95139e-016 6.36111e-015 -1.98785e-016 -7.95139e-016 0.0149774 -9.06732e-005 4.85432e-006 -4.13804e-033 5.96354e-016 3.97569e-016 6.36111e-015 -1.98785e-016 -7.95139e-016 0.0190032 -0.00118569 -5.95944e-005 -4.34494e-031 1.25234e-014 1.98785e-015 6.36111e-015 -1.98785e-016 -7.95139e-016 0.0122811 -0.00325149 -0.000681161 0 3.97569e-016 -0 6.36111e-015 -1.98785e-016 -7.95139e-016 9.54166e-015 1.78906e-015 -2.78299e-015 6.36111e-015 -1.98785e-016 -7.95139e-016 -13.3159 -33.7014 -11.5384 -71.437 85.8881 69.0762 0.49806 32.3836 -5.5394 -8.82781e-032 1.59028e-015 3.18055e-015 13.3107 -33.7018 11.533 71.4415 85.8885 -69.0856 -0.500359 32.3831 5.53628 1.71571e-006 -3.30918e-008 -3.00662e-008 
0.494995 1.01961 64.2931 -99.585 -89.9887 -99.5739 0.295087 2.02037 -0.151483 0.596078 4.03994 -0.313677 0.596078 4.03991 -0.313676 2.93439e-006 -3.06235 -2.49076e-006 3.36634e-007 -6.05347 -1.06989e-007 12.3698 -25.4928 -8.99747 -94.6721 -39.834 -61.2575 -5.80687 7.1758 -128.281 -12.3789 -9.55928 15.3939 -6.36111e-015 -1.59028e-015 3.18055e-015 -3.18055e-015 -1.98785e-015 1.59028e-015 -6.36111e-015 7.95139e-016 -0 -6.36111e-015 -1.59028e-015 3.18055e-015 -0.0145975 -8.13663e-005 -6.30537e-006 9.54166e-015 -2.78299e-015 -0 -6.36111e-015 -1.59028e-015 3.18055e-015 -0.0187258 -0.00117949 6.21336e-005 -3.18055e-015 -1.59028e-015 1.59028e-015 -6.36111e-015 -1.59028e-015 3.18055e-015 -0.0122689 -0.00324897 0.000668271 3.18055e-015 0 -1.59028e-015 -6.36111e-015 -1.59028e-015 3.18055e-015 -3.18055e-015 -1.98785e-015 1.59028e-015 -6.36111e-015 7.95139e-016 -0 -12.3966 -25.4852 8.83833 94.3208 -38.2304 62.9558 7.61469 5.20632 111.591 22.1712 -11.1003 -7.78969 5.82636e-030 2.54444e-014 -1.31198e-014 -6.36111e-015 2.39536e-014 -1.21259e-014 5.14737e-030 2.51463e-014 -1.17283e-014 5.82636e-030 2.54444e-014 -1.31198e-014 0.0149787 -9.41689e-005 2.84052e-006 -6.36111e-015 -1.19271e-015 -3.97569e-016 5.82636e-030 2.54444e-014 -1.31198e-014 0.018985 -0.00119718 -6.37827e-005 -6.36111e-015 1.37161e-014 1.19271e-015 5.82636e-030 2.54444e-014 -1.31198e-014 0.0122538 -0.00324951 -0.000678997 3.18055e-015 1.49089e-015 -1.39149e-015 5.82636e-030 2.54444e-014 -1.31198e-014 -6.36111e-015 2.39536e-014 -1.21259e-014 5.14737e-030 2.51463e-014 -1.17283e-014 -13.316 -33.7014 -11.5384 -71.4368 85.8881 69.076 0.498061 32.3836 -5.53941 -1.78906e-015 -7.95139e-016 -3.18055e-015 13.3107 -33.7018 11.533 71.4418 85.8885 -69.0859 -0.500366 32.383 5.53628 1.21414e-006 -2.43877e-007 -2.71256e-006 
0.494995 1.01961 64.4213 -99.585 -89.9887 -99.5739 0.295271 2.15082 -0.151036 0.596851 4.30082 -0.313503 0.596851 4.30082 -0.313503 2.33799e-006 -3.74622 5.413e-007 1.35652e-007 -6.7376 -1.06824e-007 12.6301 -26.26 -8.72182 -95.1522 -39.7569 -61.3503 -5.85678 7.13521 -127.88 -12.9544 -10.2714 13.7332 6.36111e-015 -2.38542e-015 -1.59028e-015 6.36111e-015 7.95139e-016 -1.59028e-015 6.36111e-015 -2.38542e-015 -0 6.36111e-015 -2.38542e-015 -1.59028e-015 -0.0146098 -9.09486e-005 1.36401e-006 9.54166e-015 3.57812e-015 -0 6.36111e-015 -2.38542e-015 -1.59028e-015 -0.0187749 -0.0011767 6.00832e-005 9.54166e-015 -3.18055e-015 1.59028e-015 6.36111e-015 -2.38542e-015 -1.59028e-015 -0.0122727 -0.0032508 0.000680264 -3.18055e-015 6.75868e-015 1.59028e-015 6.36111e-015 -2.38542e-015 -1.59028e-015 6.36111e-015 7.95139e-016 -1.59028e-015 6.36111e-015 -2.38542e-015 -0 -12.6583 -26.2527 8.57106 94.1711 -38.3854 62.7947 7.64175 5.16638 111.293 22.922 -11.4665 -6.05623 -3.18055e-015 3.68994e-015 -4.96962e-017 3.54966e-032 1.3418e-015 -1.51573e-015 -3.18055e-015 1.32937e-015 -7.20594e-016 -3.18055e-015 3.68994e-015 -4.96962e-017 0.0149721 -8.72167e-005 7.33324e-006 -1.27222e-014 -6.21202e-017 -2.23633e-016 -3.18055e-015 3.68994e-015 -4.96962e-017 0.0189966 -0.00118753 -6.31563e-005 6.36111e-015 1.49089e-015 -7.70291e-016 -3.18055e-015 3.68994e-015 -4.96962e-017 0.0122414 -0.00324191 -0.00067629 6.36111e-015 2.27857e-014 -1.30949e-014 -3.18055e-015 3.68994e-015 -4.96962e-017 3.54966e-032 1.3418e-015 -1.51573e-015 -3.18055e-015 1.32937e-015 -7.20594e-016 -13.3159 -33.7014 -11.5384 -71.4367 85.8881 69.0759 0.498049 32.3836 -5.53941 1.98785e-015 0 -3.18055e-015 13.3107 -33.7018 11.533 71.4416 85.8885 -69.0857 -0.500368 32.3831 5.53627 1.64025e-006 -1.24386e-007 -1.73023e-006 
